PathFileType	4	(X/Y/Z)	D:\TRACE\spotREDO_2-26-24\spot_justArm_Motion_1_2-platform.trc
DataRate	CameraRate	NumFrames	NumMarkers	Units	OrigDataRate	OrigDataStartFrame	OrigNumFrames
100.00	100.00	      29	5	mm	100.00	1751	      7000
Frame#	Time	Left_Front			Right_Front			Left_Aft			Right_Aft			Post			
		X1	Y1	Z1	X2	Y2	Z2	X3	Y3	Z3	X4	Y4	Z4	X5	Y5	Z5	

1751	17.500	-746.72534	-26.78448	-580.96100	667.83862	-15.02058	-496.65076	-818.49078	27.81031	636.98444	750.78601	33.94635	641.24347	-37.39425	584.43152	-1011.30994	
1752	17.510	-746.77618	-26.81664	-580.97223	667.77332	-15.07380	-496.73157	-818.53271	27.85907	636.98633	750.82007	33.93656	641.23010	-37.49355	584.51257	-1011.31842	
1753	17.520	-746.73059	-26.88235	-580.99231	667.75427	-15.08473	-496.71829	-818.51129	27.88306	636.96729	750.78979	34.00915	641.24432	-37.99536	584.59003	-1011.38367	
1754	17.530	-746.76196	-26.85664	-581.02063	667.85437	-15.10689	-496.74747	-818.49280	27.90991	637.01996	750.78430	33.95940	641.19934	-37.14328	584.22906	-1011.10754	
1755	17.540	-746.64429	-26.90026	-581.01904	667.89417	-15.20772	-496.80600	-818.44318	27.93158	636.99542	750.77783	34.04100	641.20306	-37.47349	584.20398	-1011.36182	
1756	17.550	-746.50134	-26.91253	-581.01697	668.11676	-15.25261	-496.83505	-818.17041	27.91454	636.97626	750.97485	34.08670	641.19537	-37.27079	584.13629	-1011.42584	
1757	17.560	-746.35614	-26.89892	-581.05402	668.43488	-15.43447	-496.71994	-817.79944	27.96946	636.96570	751.24646	34.21538	641.28394	-36.91821	584.11316	-1011.48792	
1758	17.570	-746.10449	-26.99880	-581.10284	668.57941	-15.22805	-496.84323	-817.40741	28.09529	636.97162	751.79669	34.28059	641.22247	-36.58384	584.05145	-1011.56696	
1759	17.580	-745.87109	-27.06553	-581.25049	668.85492	-15.43469	-496.65488	-817.11707	28.15635	636.94086	752.14648	34.44592	641.22070	-36.24243	583.94574	-1011.59741	
1760	17.590	-745.62500	-27.11248	-581.28174	669.01184	-15.42292	-496.67322	-816.86414	28.15827	636.90576	752.43976	34.42088	641.18762	-35.95705	583.81079	-1011.73004	
1761	17.600	-745.39099	-27.18981	-581.35504	669.16699	-15.48657	-496.73157	-816.65533	28.14762	636.89099	752.58264	34.48806	641.12555	-35.81145	583.77441	-1011.81122	
1762	17.610	-745.08649	-27.20400	-581.28253	669.54785	-15.57569	-496.70694	-816.37213	28.29180	636.96069	752.85126	34.58802	641.07544	-35.65464	583.81470	-1011.88501	
1763	17.620	-744.74420	-27.17149	-581.17480	669.80945	-15.46917	-496.77347	-816.01105	28.31314	636.98724	753.13757	34.67101	641.11096	-35.40186	583.80249	-1011.90369	
1764	17.630	-744.51801	-27.13258	-581.17975	670.25494	-15.22651	-496.80692	-815.80768	28.29645	636.89215	753.51190	34.62733	641.16058	-35.16193	583.78442	-1012.06543	
1765	17.640	-744.12164	-27.14701	-581.12158	670.82098	-15.33336	-496.74820	-815.39789	28.37398	636.82367	753.83197	34.59676	641.24280	-34.82352	583.70770	-1012.14899	
1766	17.650	-743.77234	-27.11676	-581.13318	671.16364	-15.47007	-496.91507	-814.98169	28.30835	636.75671	754.26001	34.56401	641.19006	-34.28564	583.78143	-1012.01251	
1767	17.660	-743.30707	-27.09736	-581.16608	671.49628	-15.32320	-496.82883	-814.54895	28.34079	636.73969	754.62250	34.54641	641.15479	-33.79689	583.84003	-1011.77405	
1768	17.670	-742.79736	-27.21439	-581.10046	671.73706	-15.22579	-496.79529	-814.12482	28.35011	636.75824	754.93549	34.49709	641.11591	-32.92587	583.81769	-1011.39539	
1769	17.680	-742.31921	-27.20561	-581.10651	672.08807	-15.17200	-496.85553	-813.91016	28.39507	636.74597	755.40082	34.55007	641.13080	-32.28469	583.87610	-1011.29553	
1770	17.690	-742.06586	-27.15600	-581.15082	672.65814	-15.46134	-496.74045	-813.62048	28.37843	636.80133	755.90448	34.47017	641.13556	-31.79239	583.95776	-1011.37000	
1771	17.700	-741.75024	-27.12577	-581.14508	673.18469	-15.40723	-496.71780	-813.10754	28.37156	636.87091	756.10071	34.47149	641.16205	-32.02785	583.99457	-1011.73737	
1772	17.710	-741.33594	-27.04795	-581.03436	673.68744	-15.37901	-496.69473	-812.67847	28.28792	636.83765	756.51721	34.44851	641.16498	-31.79814	584.06641	-1011.72595	
1773	17.720	-740.86646	-27.00959	-581.08484	674.03833	-15.42599	-496.64395	-812.12939	28.26009	636.90112	757.00458	34.31140	641.21320	-31.31764	584.07806	-1011.68451	
1774	17.730	-740.32239	-26.93333	-581.06744	674.42389	-15.40050	-496.58057	-811.62549	28.20063	636.91986	757.45740	34.27029	641.20502	-30.91419	584.11859	-1011.64117	
1775	17.740	-739.86304	-26.74582	-581.01489	674.84595	-15.29003	-496.60901	-811.19629	28.09920	636.93524	758.17755	34.16369	640.97290	-30.51742	584.20093	-1011.62170	
1776	17.750	-739.25629	-26.76405	-580.98834	675.41296	-15.18153	-496.69254	-810.71368	27.99856	637.01392	758.77032	34.11017	640.98706	-29.76561	584.27057	-1011.66943	
1777	17.760	-738.67548	-26.72692	-580.98560	675.89825	-14.99082	-496.65137	-810.34674	27.88490	637.01855	759.43018	33.96542	641.05212	-29.15224	584.38947	-1011.62695	
1778	17.770	-738.27643	-26.75012	-580.97424	676.52966	-15.00838	-496.60684	-809.78857	27.76466	637.03735	759.79382	34.05621	641.20831	-28.61708	584.52716	-1011.43823	
1779	17.780	-737.94550	-26.73427	-580.97668	676.94617	-14.93290	-496.68509	-809.07581	27.78845	637.00787	760.03448	34.04655	641.26422	-28.29046	584.63550	-1011.37030	
